<svg width="21" height="21" viewBox="0 0 21 21" fill="none" xmlns="http://www.w3.org/2000/svg">
<path d="M20.1068 10.6102L20.0445 10.4563L20.0314 10.4632L17.4433 3.6616H18.4695C18.7829 3.6616 19.0233 3.39573 19.0233 3.08521C19.0233 2.77468 18.7829 2.50882 18.4695 2.50882H11.0195V1.42654C11.0195 1.11602 10.7791 0.850153 10.4657 0.850153C10.1522 0.850153 9.91185 1.11602 9.91185 1.42654V2.50455H2.46589C2.15245 2.50455 1.91206 2.77041 1.91206 3.08094C1.91206 3.39147 2.15245 3.65733 2.46589 3.65733H3.54444L0.892638 10.6117C0.865948 10.6783 0.851569 10.7493 0.850034 10.821L0.85 10.821V10.8242C0.85 12.8574 2.41292 14.5197 4.35781 14.5197C6.3027 14.5197 7.86562 12.8574 7.86566 10.8242L7.86559 10.821C7.86405 10.7493 7.84968 10.6783 7.82299 10.6117L5.17506 3.65307H9.91185V16.5505C8.0087 16.7543 6.47933 18.004 6.47933 19.5738C6.47933 19.8843 6.71972 20.1502 7.03316 20.1502H13.8982C14.2116 20.1502 14.452 19.8843 14.452 19.5738C14.452 18.004 12.9227 16.7543 11.0195 16.5505V3.65307H15.8092L13.177 10.6119C13.1503 10.6784 13.1359 10.7493 13.1344 10.821H13.1344V10.8242C13.1344 12.8574 14.6973 14.5197 16.6422 14.5197C18.5871 14.5197 20.15 12.8574 20.15 10.8242L20.15 10.821C20.1484 10.7487 20.1338 10.6772 20.1068 10.6102ZM16.6238 13.3733L16.5063 13.3734C15.4461 13.3092 14.5455 12.5108 14.3045 11.4091H18.9593C18.7066 12.5558 17.7394 13.3716 16.6238 13.3733ZM4.35529 13.3733C3.23998 13.3713 2.2732 12.5555 2.02046 11.4091H6.67498C6.42353 12.5497 5.46492 13.3639 4.35529 13.3733ZM6.49279 10.2563H2.22714L4.36363 4.6418L6.49279 10.2563ZM12.2913 18.1224C12.7128 18.3568 13.0277 18.662 13.1975 18.9974H7.72976C7.89935 18.6619 8.21347 18.3566 8.63412 18.1224C9.13392 17.844 9.77285 17.6728 10.4616 17.6728C11.1504 17.6728 11.7904 17.844 12.2913 18.1224ZM14.4873 10.2563L16.6238 4.64581L18.7529 10.2563H14.4873Z" fill="#788392" stroke="#788392" stroke-width="0.3"/>
</svg>
