<svg width="125" height="45" viewBox="0 0 125 45" fill="none" xmlns="http://www.w3.org/2000/svg">
<path d="M7.95714 3.89621H117.043C121.481 3.89621 125 7.5327 125 12.0458V36.6571C125 41.2027 121.449 44.8068 117.043 44.8068H7.95714C3.51889 44.8068 0 41.1703 0 36.6571V12.0458C0 7.50023 3.51889 3.89621 7.95714 3.89621Z" fill="white"/>
<path d="M17.0872 16.8512H12.649C12.3637 16.8512 12.2052 17.0135 12.2052 17.3058V18.9617C12.2052 19.2539 12.3637 19.4162 12.649 19.4162H17.214H17.3726C18.5455 19.5786 19.4332 20.6176 19.2747 21.8189C19.1161 23.0202 18.1017 23.767 17.0555 23.767H12.6173C12.332 23.767 12.1735 23.9294 12.1735 24.2216V31.6245C12.1735 31.9167 12.332 32.079 12.6173 32.079H14.2341C14.5194 32.079 14.6779 31.9167 14.6779 31.6245V26.7866C14.6779 26.4944 14.8364 26.3321 15.1217 26.3321H17.1823C17.3408 26.3321 17.4677 26.3321 17.6262 26.3321C20.1306 26.0398 22.0644 23.767 21.7474 21.202C21.6523 18.6694 19.5917 16.8512 17.0872 16.8512Z" fill="url(#paint0_linear)"/>
<path d="M32.2724 16.7213C28.1511 16.7213 24.8859 20.1955 24.8859 24.2865C24.8859 28.5075 28.278 31.8518 32.2724 31.8518C36.3936 31.8518 39.6589 28.3776 39.6589 24.2865C39.6589 20.1955 36.3936 16.7213 32.2724 16.7213ZM37.1544 24.4164C37.1544 27.1438 34.9353 29.3841 32.3041 29.3841C29.6411 29.3841 27.4537 27.1113 27.4537 24.4164C27.4537 21.7215 29.6728 19.4487 32.3041 19.4487C34.9353 19.2864 37.1544 21.5592 37.1544 24.4164Z" fill="url(#paint1_linear)"/>
<path d="M51.7373 29.3841H46.2846C45.9993 29.3841 45.8407 29.2218 45.8407 28.9296V17.1434C45.8407 16.8512 45.6822 16.6889 45.3969 16.6889H43.7801C43.4948 16.6889 43.3363 16.8512 43.3363 17.1434V31.3323C43.3363 31.6245 43.4948 31.7868 43.7801 31.7868H51.7373C52.0226 31.7868 52.1811 31.6245 52.1811 31.3323V29.6764C52.1811 29.5465 52.0226 29.3841 51.7373 29.3841Z" fill="url(#paint2_linear)"/>
<path d="M58.6799 16.8512H57.0631C56.7778 16.8512 56.6193 17.0135 56.6193 17.3058V31.4946C56.6193 31.7868 56.7778 31.9492 57.0631 31.9492H58.6799C58.9652 31.9492 59.1238 31.7868 59.1238 31.4946V17.3058C59.0921 17.0135 58.9652 16.8512 58.6799 16.8512Z" fill="url(#paint3_linear)"/>
<path d="M70.156 23.345C69.2683 23.0527 67.6515 22.7281 67.0492 21.9813C66.003 20.7799 67.3345 19.7085 68.5392 19.4162C69.8706 19.124 71.3289 19.4162 72.5336 20.163C72.6921 20.3254 72.9774 20.163 73.1359 20.0007L73.8651 18.9292C74.0236 18.7669 74.0236 18.4747 73.7065 18.3123C71.0436 16.4941 66.0347 16.0395 64.5764 19.5136C63.5303 21.7865 64.8618 23.8969 66.9224 24.8061C68.0953 25.423 71.2021 25.8775 71.6459 27.2087C73.1359 30.2283 66.1932 28.8646 64.7032 28.4101C64.5447 28.4101 64.4179 28.4101 64.2594 28.5724L63.6571 29.4815C63.4986 29.6439 63.4986 29.9361 63.8156 30.0984C65.8762 31.4621 68.3807 32.0466 70.8851 31.6245C73.548 31.0076 75.4501 27.8581 73.6749 25.423C72.5336 24.4164 71.4874 23.7995 70.156 23.345Z" fill="url(#paint4_linear)"/>
<path d="M97.1342 16.8512H95.5174C95.232 16.8512 95.0735 17.0135 95.0735 17.3058V26.6567C95.0735 28.3126 93.7421 29.6763 92.1253 29.6763C91.9668 29.6763 91.6814 29.6763 91.5229 29.6763C90.1915 29.3841 89.177 28.1503 89.3038 26.6567V17.4356C89.3038 17.1434 89.1453 16.9811 88.86 16.9811H87.2432C86.9579 16.9811 86.7994 17.1434 86.7994 17.4356V26.6567C86.7994 29.514 88.7015 31.9491 91.5229 32.2414C94.4712 32.6959 97.1341 30.5855 97.578 27.5659C97.578 27.2737 97.578 27.1113 97.578 26.8191V17.4681C97.578 17.0135 97.2927 16.8512 97.1342 16.8512Z" fill="url(#paint5_linear)"/>
<path d="M112.763 31.3647L108.769 17.0136C108.769 16.8512 108.61 16.7213 108.325 16.7213H104.204C104.045 16.7213 103.918 16.8837 103.76 17.0136L99.6386 31.9492H101.858C102.016 31.9492 102.143 31.7868 102.302 31.657L103.475 27.2737C103.475 27.1113 103.633 26.9814 103.918 26.9814H108.642C108.8 26.9814 108.927 27.1438 109.086 27.2737L110.259 31.657C110.259 31.8193 110.417 31.9492 110.703 31.9492H112.478C112.478 31.9816 112.763 31.8193 112.763 31.3647C112.763 31.5271 112.763 31.5271 112.763 31.3647ZM107.754 24.4164C107.754 24.4164 107.627 24.4164 107.754 24.4164H104.806C104.521 24.4164 104.362 24.2541 104.362 23.9619C104.362 23.9619 104.362 23.9619 104.362 23.7995L105.535 19.4162C105.535 19.2539 105.694 19.124 105.979 19.124H106.423C106.581 19.124 106.708 19.2864 106.867 19.4162L108.04 23.7995C108.071 24.1242 107.913 24.4164 107.754 24.4164Z" fill="url(#paint6_linear)"/>
<path d="M19.9087 6.0067C19.9721 6.0067 20.0038 6.03916 20.0355 6.07163L20.4159 6.46126C20.1306 6.78595 19.8136 7.04569 19.4015 7.24051C18.9893 7.43532 18.5138 7.53272 17.9432 7.53272C17.4676 7.53272 17.0238 7.43532 16.6117 7.27298C16.1996 7.11063 15.8826 6.85088 15.5972 6.52619C15.3119 6.2015 15.09 5.84435 14.9315 5.38979C14.773 4.96769 14.7096 4.48066 14.7096 3.92869C14.7096 3.4092 14.8047 2.92216 14.9632 2.4676C15.1217 2.01304 15.3436 1.65589 15.6606 1.3312C15.946 1.00651 16.2947 0.779234 16.7068 0.584422C17.1189 0.422079 17.5628 0.324677 18.07 0.324677C18.5455 0.324677 18.9893 0.389608 19.3698 0.551951C19.7502 0.714295 20.0672 0.941576 20.3525 1.20133L20.0355 1.62342C20.0038 1.65589 20.0038 1.68836 19.9721 1.68836C19.9404 1.72082 19.9087 1.72083 19.8453 1.72083C19.7819 1.72083 19.7185 1.68836 19.6234 1.62342C19.5283 1.55849 19.4332 1.49355 19.3063 1.39614C19.1795 1.3312 19.021 1.23379 18.7991 1.16885C18.6089 1.10392 18.3553 1.07145 18.07 1.07145C17.7213 1.07145 17.4042 1.13639 17.1189 1.26627C16.8336 1.39614 16.58 1.55848 16.3581 1.81823C16.1362 2.07798 15.9777 2.33773 15.8509 2.69489C15.7241 3.01957 15.6606 3.4092 15.6606 3.86376C15.6606 4.28586 15.7241 4.67548 15.8509 5.03264C15.9777 5.35733 16.1362 5.64954 16.3581 5.90929C16.58 6.13657 16.8336 6.33138 17.1189 6.46126C17.4042 6.59113 17.7213 6.65607 18.0383 6.65607C18.2285 6.65607 18.4187 6.65607 18.5772 6.6236C18.7357 6.59113 18.8942 6.55867 19.021 6.49373C19.1478 6.42879 19.2746 6.36385 19.4015 6.29892C19.5283 6.23398 19.6234 6.13657 19.7502 6.0067C19.7819 6.03917 19.8453 6.0067 19.9087 6.0067Z" fill="#788392"/>
<path d="M25.0761 3.18194H23.2374V7.46781H22.3814V3.18194H20.511V2.53256H25.0444V3.18194H25.0761Z" fill="#788392"/>
<path d="M26.6928 3.27933C26.883 3.01958 27.1367 2.82477 27.3903 2.66243C27.6439 2.50008 27.9609 2.43515 28.3096 2.43515C28.5949 2.43515 28.8486 2.50009 29.0705 2.59749C29.2924 2.6949 29.4826 2.85724 29.6411 3.08452C29.7996 3.3118 29.9264 3.57155 30.0215 3.86377C30.1166 4.18846 30.1483 4.54561 30.1483 4.93523C30.1483 5.29239 30.1166 5.64955 30.0215 5.94176C29.9264 6.26645 29.7996 6.5262 29.6094 6.75348C29.4192 6.98076 29.1973 7.17558 28.9437 7.30545C28.69 7.43533 28.4047 7.50026 28.056 7.50026C27.7707 7.50026 27.5171 7.43532 27.2952 7.33791C27.0733 7.24051 26.8831 7.07817 26.7245 6.91583V9.09123H25.8686V2.50008H26.3758C26.5026 2.50008 26.566 2.56502 26.5977 2.6949L26.6928 3.27933ZM26.7245 6.26645C26.8831 6.49373 27.0416 6.62361 27.2318 6.72101C27.422 6.81842 27.6122 6.85088 27.8658 6.85088C28.3096 6.85088 28.6583 6.68854 28.912 6.36385C29.1656 6.03917 29.2607 5.58461 29.2607 4.9677C29.2607 4.64302 29.229 4.38327 29.1656 4.12352C29.1022 3.89624 29.0388 3.70143 28.912 3.57155C28.8169 3.40921 28.69 3.3118 28.5315 3.24687C28.373 3.18193 28.2145 3.14946 28.0243 3.14946C27.739 3.14946 27.5171 3.21439 27.2952 3.34427C27.0733 3.47414 26.8831 3.66896 26.7245 3.89624V6.26645Z" fill="#788392"/>
<path d="M31.0677 3.2144C31.3213 2.95465 31.6066 2.75983 31.9236 2.62995C32.2407 2.50008 32.5577 2.43515 32.9381 2.43515C33.1917 2.43515 33.4453 2.46762 33.6672 2.56502C33.8892 2.66243 34.0477 2.7923 34.2062 2.95464C34.333 3.11699 34.4598 3.3118 34.5232 3.53908C34.5866 3.76637 34.6183 4.02611 34.6183 4.28586V7.43533H34.2379C34.1428 7.43533 34.0794 7.43533 34.0477 7.40286C34.016 7.37039 33.9526 7.30545 33.9526 7.24051L33.8575 6.78595C33.7307 6.91583 33.6038 7.01324 33.477 7.11064C33.3502 7.20805 33.2234 7.27298 33.0966 7.33792C32.9698 7.40285 32.8113 7.43532 32.6845 7.50026C32.526 7.53273 32.3675 7.5652 32.1773 7.5652C31.9871 7.5652 31.8285 7.53273 31.6383 7.50026C31.4481 7.46779 31.3213 7.37039 31.1945 7.27299C31.0677 7.17558 30.9726 7.0457 30.9092 6.85089C30.8458 6.65607 30.8141 6.49373 30.8141 6.26645C30.8141 6.07164 30.8775 5.87683 30.9726 5.71448C31.0677 5.51967 31.2579 5.38979 31.4798 5.22745C31.7017 5.09758 32.0188 4.96771 32.3992 4.8703C32.7796 4.7729 33.2234 4.74043 33.7941 4.70796V4.31833C33.7941 3.92871 33.6989 3.63648 33.5404 3.44167C33.3819 3.24686 33.1283 3.14946 32.843 3.14946C32.6211 3.14946 32.4626 3.18193 32.3041 3.2144C32.1456 3.24687 32.0505 3.34427 31.9236 3.40921C31.8285 3.47415 31.7334 3.53908 31.67 3.60402C31.6066 3.66895 31.5115 3.66896 31.4481 3.66896C31.3847 3.66896 31.353 3.66896 31.2896 3.63649C31.2579 3.60402 31.2262 3.57155 31.1945 3.50661L31.0677 3.2144ZM33.7941 5.22745C33.4136 5.22745 33.0649 5.25993 32.8113 5.32486C32.526 5.3898 32.3041 5.45474 32.1456 5.51968C31.9871 5.58461 31.8602 5.68202 31.7651 5.81189C31.7017 5.9093 31.6383 6.03918 31.6383 6.16905C31.6383 6.29893 31.67 6.39633 31.7017 6.49374C31.7334 6.59114 31.7968 6.65608 31.8602 6.72101C31.9236 6.78595 32.0188 6.81842 32.1139 6.85089C32.209 6.88336 32.3041 6.88336 32.4309 6.88336C32.5894 6.88336 32.7162 6.88336 32.843 6.85089C32.9698 6.81842 33.0966 6.78595 33.1917 6.72101C33.2868 6.65608 33.4136 6.59114 33.5087 6.5262C33.6038 6.42879 33.6989 6.36386 33.7941 6.23398V5.22745Z" fill="#788392"/>
<path d="M39.8808 7.43534H39.0565C38.9931 7.43534 38.9297 7.40287 38.898 7.3704C38.8663 7.33793 38.8346 7.30546 38.8029 7.24053L37.5982 5.2924C37.5982 5.32487 37.5665 5.38981 37.5665 5.42228C37.5665 5.45474 37.5348 5.51968 37.5031 5.55215L36.3936 7.24053C36.3619 7.27299 36.3302 7.33793 36.2985 7.3704C36.2668 7.40287 36.2034 7.43534 36.14 7.43534H35.3791L37.0593 4.90277L35.4425 2.50009H36.2668C36.3302 2.50009 36.3936 2.50009 36.4253 2.53256C36.457 2.56503 36.4887 2.5975 36.5204 2.62996L37.6933 4.48068C37.7251 4.38328 37.7568 4.28588 37.8202 4.22094L38.8663 2.66244C38.898 2.62997 38.9297 2.56503 38.9614 2.56503C38.9931 2.56503 39.0248 2.53256 39.0882 2.53256H39.8808L38.264 4.90277L39.8808 7.43534Z" fill="#788392"/>
<path d="M44.8263 2.50009L42.1316 8.89643C42.0999 8.96137 42.0682 9.02631 42.0365 9.05877C42.0048 9.09124 41.9414 9.12371 41.8463 9.12371H41.2123L42.0999 7.17558L40.1027 2.53256H40.8318C40.8952 2.53256 40.9586 2.56503 40.9903 2.5975C41.022 2.62997 41.0537 2.66244 41.0854 2.72738L42.3852 5.84437C42.4486 5.97425 42.4803 6.13659 42.512 6.26646C42.5437 6.10412 42.6071 5.97425 42.6705 5.84437L43.9069 2.72738C43.9386 2.66244 43.9703 2.62997 44.002 2.5975C44.0337 2.56503 44.0971 2.53256 44.1605 2.53256H44.8263V2.50009Z" fill="#788392"/>
<path d="M47.3307 2.50009C47.616 2.50009 47.8696 2.53257 48.0915 2.5975C48.3134 2.66244 48.472 2.72737 48.5988 2.85725C48.7256 2.95466 48.8207 3.08453 48.8841 3.21441C48.9475 3.34428 48.9792 3.50662 48.9792 3.66897C48.9792 3.76637 48.9792 3.89625 48.9475 3.99365C48.9158 4.09106 48.8841 4.22093 48.789 4.31834C48.7256 4.41575 48.6305 4.51315 48.5037 4.61056C48.3768 4.70796 48.2183 4.7729 48.0598 4.80537C48.4402 4.87031 48.7256 5.00019 48.9158 5.195C49.106 5.38981 49.2011 5.64956 49.2011 5.97425C49.2011 6.20153 49.1694 6.42881 49.0743 6.59115C48.9792 6.75349 48.8524 6.91584 48.6939 7.04571C48.5354 7.17558 48.3451 7.24053 48.1232 7.30547C47.9013 7.3704 47.6794 7.40287 47.4258 7.40287H45.5554V2.46762H47.3307V2.50009ZM46.3796 3.08453V4.64303H47.299C47.4258 4.64303 47.5526 4.61056 47.6794 4.57809C47.8062 4.54562 47.9013 4.48068 47.9964 4.41574C48.0915 4.35081 48.1549 4.2534 48.1866 4.156C48.25 4.05859 48.25 3.92872 48.25 3.83131C48.25 3.7339 48.2183 3.6365 48.2183 3.57156C48.1866 3.47416 48.1232 3.40922 48.0598 3.34428C47.9964 3.27934 47.8696 3.21441 47.7745 3.18194C47.6794 3.14947 47.4892 3.11699 47.3307 3.11699H46.3796V3.08453ZM47.4258 6.81844C47.7428 6.81844 47.9964 6.75349 48.1866 6.59115C48.3768 6.42881 48.472 6.234 48.472 5.97425C48.472 5.84437 48.4402 5.74697 48.4085 5.64956C48.3768 5.55215 48.3134 5.45474 48.25 5.3898C48.1549 5.32487 48.0598 5.25993 47.933 5.22746C47.8062 5.19499 47.6477 5.16253 47.4575 5.16253H46.4113V6.81844H47.4258Z" fill="#788392"/>
<path d="M50.1521 3.2144C50.4058 2.95465 50.6911 2.75983 51.0081 2.62995C51.3251 2.50008 51.6421 2.43515 52.0225 2.43515C52.2762 2.43515 52.5298 2.46762 52.7517 2.56502C52.9736 2.66243 53.1321 2.7923 53.2906 2.95464C53.4491 3.11699 53.5442 3.3118 53.6076 3.53908C53.671 3.76637 53.7027 4.02611 53.7027 4.28586V7.43533H53.3223C53.2272 7.43533 53.1638 7.43533 53.1321 7.40286C53.1004 7.37039 53.037 7.30545 53.037 7.24051L52.9419 6.78595C52.8151 6.91583 52.6883 7.01324 52.5615 7.11064C52.4347 7.20805 52.3079 7.27298 52.181 7.33792C52.0542 7.40285 51.8957 7.43532 51.7689 7.50026C51.6104 7.53273 51.4519 7.5652 51.2617 7.5652C51.0715 7.5652 50.913 7.53273 50.7228 7.50026C50.5326 7.46779 50.4058 7.37039 50.2789 7.27299C50.1521 7.17558 50.057 7.0457 49.9936 6.85089C49.9302 6.65607 49.8985 6.49373 49.8985 6.26645C49.8985 6.07164 49.9619 5.87683 50.057 5.71448C50.1521 5.51967 50.3423 5.38979 50.5643 5.22745C50.7862 5.09758 51.1032 4.96771 51.4836 4.8703C51.864 4.7729 52.3079 4.74043 52.8785 4.70796V4.31833C52.8785 3.92871 52.7834 3.63648 52.6249 3.44167C52.4664 3.24686 52.2128 3.14946 51.9274 3.14946C51.7055 3.14946 51.547 3.18193 51.3885 3.2144C51.23 3.24687 51.1349 3.34427 51.0081 3.40921C50.913 3.47415 50.8179 3.53908 50.7545 3.60402C50.6911 3.66895 50.596 3.66896 50.5326 3.66896C50.4692 3.66896 50.4375 3.66896 50.3741 3.63649C50.3424 3.60402 50.3106 3.57155 50.2789 3.50661L50.1521 3.2144ZM52.9102 5.22745C52.5298 5.22745 52.1811 5.25993 51.9274 5.32486C51.6421 5.3898 51.4202 5.45474 51.2617 5.51968C51.1032 5.58461 50.9764 5.68202 50.8813 5.81189C50.8179 5.9093 50.7545 6.03918 50.7545 6.16905C50.7545 6.29893 50.7862 6.39633 50.8179 6.49374C50.8496 6.59114 50.913 6.65608 50.9764 6.72101C51.0398 6.78595 51.1349 6.81842 51.23 6.85089C51.3251 6.88336 51.4202 6.88336 51.547 6.88336C51.7055 6.88336 51.8323 6.88336 51.9591 6.85089C52.0859 6.81842 52.2127 6.78595 52.3079 6.72101C52.403 6.65608 52.5298 6.59114 52.6249 6.5262C52.72 6.42879 52.8151 6.36386 52.9102 6.23398V5.22745Z" fill="#788392"/>
<path d="M59.0286 2.50009V7.43534H58.1727V5.13006H55.8585V7.43534H55.0025V2.50009H55.8585V4.48068H58.1727V2.50009H59.0286Z" fill="#788392"/>
<path d="M64.3862 2.50009V7.43534H63.5303V5.13006H61.216V7.43534H60.3601V2.50009H61.216V4.48068H63.5303V2.50009H64.3862Z" fill="#788392"/>
<path d="M69.0781 2.50009V7.43534H68.2855V5.35734H67.9051C67.81 5.35734 67.7466 5.35734 67.6832 5.3898C67.6198 5.3898 67.5881 5.42228 67.5247 5.45475C67.4613 5.48721 67.4296 5.51968 67.3979 5.55215C67.3662 5.58462 67.3345 5.64956 67.3028 5.68203L66.2566 7.14312C66.1932 7.24053 66.1298 7.33793 66.0664 7.3704C66.003 7.40287 65.8762 7.43534 65.7177 7.43534H65.1154L66.5102 5.58462C66.637 5.38981 66.7638 5.25994 66.9541 5.195C66.7004 5.16253 66.5102 5.09759 66.32 5.03266C66.1615 4.93525 66.003 4.83784 65.9079 4.74043C65.8128 4.61056 65.7177 4.51316 65.686 4.35081C65.6226 4.22094 65.6226 4.05859 65.6226 3.92871C65.6226 3.76637 65.6543 3.60403 65.7177 3.40922C65.7811 3.21441 65.8762 3.08453 66.0347 2.95465C66.1932 2.82478 66.3517 2.72737 66.5736 2.62996C66.7955 2.53256 67.0809 2.50009 67.3979 2.50009H69.0781ZM68.2538 4.80537V3.08453H67.4296C67.2394 3.08453 67.1126 3.117 66.9858 3.14947C66.8589 3.18193 66.7638 3.27934 66.7004 3.34428C66.637 3.44169 66.5736 3.50662 66.5419 3.6365C66.5102 3.7339 66.5102 3.83131 66.5102 3.92871C66.5102 4.18846 66.6053 4.41575 66.7955 4.54563C66.9858 4.70797 67.2394 4.7729 67.5881 4.7729H68.2538V4.80537Z" fill="#788392"/>
<path d="M72.5336 3.01958C72.7238 2.85724 72.9457 2.6949 73.1993 2.59749C73.4529 2.50009 73.7699 2.43515 74.1187 2.43515C74.404 2.43515 74.6576 2.46761 74.8795 2.53255C75.1014 2.59749 75.2916 2.69489 75.4501 2.82477C75.6086 2.95464 75.7038 3.08452 75.7989 3.24687C75.8623 3.40921 75.9257 3.57155 75.9257 3.7339C75.9257 3.8313 75.9257 3.92871 75.894 4.02611C75.8623 4.12352 75.7989 4.22092 75.7355 4.31833C75.6721 4.41574 75.5769 4.51314 75.4501 4.57808C75.355 4.67548 75.1965 4.74042 75.038 4.77289C75.355 4.8703 75.5769 5.03264 75.7672 5.22745C75.9574 5.42226 76.0208 5.68202 76.0208 6.00671C76.0208 6.23399 75.9574 6.4288 75.8623 6.62361C75.7672 6.81842 75.6086 6.9483 75.4501 7.07817C75.2916 7.20805 75.0697 7.30545 74.8478 7.37039C74.6259 7.43533 74.3723 7.4678 74.1504 7.4678C73.9919 7.4678 73.8334 7.4678 73.6748 7.43533C73.5163 7.40286 73.3578 7.37039 73.1993 7.30546C73.0408 7.24052 72.914 7.17558 72.7555 7.07817C72.597 6.98076 72.5019 6.88336 72.4068 6.75348L72.6604 6.4288C72.6921 6.36386 72.7555 6.33139 72.8189 6.33139C72.8823 6.33139 72.9457 6.36386 73.0091 6.39633C73.0725 6.46126 73.1676 6.49373 73.2627 6.55867C73.3578 6.62361 73.4846 6.68854 73.6114 6.72101C73.7382 6.78595 73.9285 6.78595 74.1187 6.78595C74.2772 6.78595 74.4357 6.75348 74.5942 6.72101C74.721 6.68854 74.8478 6.62361 74.9429 6.5262C75.038 6.46126 75.1014 6.36386 75.1648 6.23398C75.2282 6.10411 75.2282 6.0067 75.2282 5.87683C75.2282 5.61708 75.1331 5.42227 74.9429 5.29239C74.7527 5.16252 74.4357 5.06511 74.0553 5.06511H73.5163V4.48067H74.0553C74.2138 4.48067 74.3723 4.4482 74.5308 4.41573C74.6576 4.38326 74.7844 4.31833 74.8795 4.25339C74.9746 4.18845 75.038 4.12352 75.1014 4.02611C75.1648 3.92871 75.1648 3.8313 75.1648 3.7339C75.1648 3.63649 75.1331 3.53908 75.1014 3.44167C75.0697 3.34427 75.0063 3.27933 74.9112 3.2144C74.8161 3.14946 74.721 3.08452 74.5942 3.05205C74.4674 3.01958 74.3089 2.98711 74.1504 2.98711C73.9602 2.98711 73.8017 3.01958 73.6748 3.05205C73.548 3.08452 73.4212 3.14946 73.3578 3.18193C73.2944 3.2144 73.1993 3.27933 73.1359 3.3118C73.0725 3.34427 73.0408 3.37674 72.9774 3.37674C72.914 3.37674 72.914 3.37674 72.8823 3.34427C72.8506 3.34427 72.8189 3.27934 72.7872 3.24687L72.5336 3.01958Z" fill="#788392"/>
<path d="M82.1075 6.78596V8.86396C82.1075 8.96137 82.0758 9.0263 82.0441 9.05877C82.0124 9.09124 81.949 9.1237 81.8539 9.1237H81.3467V7.43534H77.2889V8.89643C77.2889 8.96137 77.2571 9.0263 77.2254 9.05877C77.1937 9.12371 77.1303 9.1237 77.0352 9.1237H76.4963V6.78596H76.6548C76.7499 6.78596 76.8767 6.75349 76.9718 6.72102C77.0669 6.68855 77.1937 6.62362 77.2889 6.49375C77.384 6.36387 77.4791 6.23399 77.5742 6.03918C77.6693 5.84437 77.7327 5.58462 77.8278 5.25993C77.8912 4.93524 77.9546 4.54562 78.018 4.09106C78.0814 3.63649 78.1131 3.08453 78.1448 2.46762H81.1882V6.75349H82.1075V6.78596ZM80.3956 6.81844V3.21441H78.8739C78.8422 3.73391 78.8105 4.156 78.7471 4.54563C78.6837 4.93525 78.6203 5.2924 78.5569 5.58462C78.4935 5.87684 78.3984 6.13659 78.3033 6.3314C78.2082 6.52622 78.1131 6.68856 78.018 6.81844H80.3956Z" fill="#788392"/>
<path d="M84.8973 2.43515C85.246 2.43515 85.563 2.50008 85.8483 2.62995C86.1337 2.75983 86.3873 2.92217 86.5775 3.14946C86.7677 3.37674 86.9262 3.63649 87.0213 3.96117C87.1164 4.28586 87.1798 4.61055 87.1798 5.00018C87.1798 5.3898 87.1164 5.74695 87.0213 6.03917C86.9262 6.36386 86.7677 6.6236 86.5775 6.85089C86.3873 7.07817 86.1337 7.24051 85.8483 7.37039C85.563 7.50026 85.246 7.53273 84.8973 7.53273C84.5486 7.53273 84.2315 7.46779 83.9462 7.37039C83.6609 7.24051 83.4073 7.07817 83.2171 6.85089C83.0269 6.6236 82.8684 6.36386 82.7733 6.03917C82.6781 5.71448 82.6147 5.3898 82.6147 5.00018C82.6147 4.61055 82.6781 4.25339 82.7733 3.96117C82.8684 3.66895 83.0269 3.37674 83.2171 3.14946C83.4073 2.92217 83.6609 2.75983 83.9462 2.62995C84.2315 2.50008 84.5486 2.43515 84.8973 2.43515ZM84.8973 6.81843C85.3728 6.81843 85.7215 6.65608 85.9751 6.33139C86.1971 6.00671 86.3239 5.55214 86.3239 4.96771C86.3239 4.38327 86.1971 3.9287 85.9751 3.60402C85.7532 3.27933 85.3728 3.11698 84.8973 3.11698C84.6437 3.11698 84.4535 3.14946 84.2632 3.24687C84.073 3.34427 83.9462 3.44167 83.8194 3.60402C83.6926 3.76636 83.5975 3.96118 83.5658 4.18846C83.5024 4.41574 83.4707 4.67549 83.4707 4.96771C83.4707 5.55214 83.5975 6.00671 83.8194 6.33139C84.073 6.65608 84.4218 6.81843 84.8973 6.81843Z" fill="#788392"/>
<path d="M89.0819 3.27933C89.2721 3.01958 89.5257 2.82477 89.7793 2.66243C90.0329 2.50008 90.35 2.43515 90.6987 2.43515C90.984 2.43515 91.2376 2.50009 91.4595 2.59749C91.6814 2.6949 91.8717 2.85724 92.0302 3.08452C92.1887 3.3118 92.3155 3.57155 92.4106 3.86377C92.5057 4.18846 92.5374 4.54561 92.5374 4.93523C92.5374 5.29239 92.474 5.64955 92.3789 5.94176C92.2838 6.23398 92.157 6.5262 91.9668 6.75348C91.7765 6.98076 91.5546 7.17558 91.301 7.30545C91.0474 7.43533 90.7621 7.50026 90.4134 7.50026C90.1281 7.50026 89.8744 7.43532 89.6525 7.33791C89.4306 7.24051 89.2404 7.07817 89.0819 6.91583V9.09123H88.226V2.50008H88.7332C88.86 2.50008 88.9234 2.56502 88.9551 2.6949L89.0819 3.27933ZM89.1136 6.26645C89.2721 6.49373 89.4306 6.62361 89.6208 6.72101C89.811 6.81842 90.0012 6.85088 90.2549 6.85088C90.6987 6.85088 91.0474 6.68854 91.301 6.36385C91.5546 6.03917 91.6497 5.58461 91.6497 4.9677C91.6497 4.64302 91.618 4.38327 91.5546 4.12352C91.4912 3.89624 91.4278 3.70143 91.301 3.57155C91.2059 3.40921 91.0791 3.3118 90.9206 3.24687C90.7621 3.18193 90.6036 3.14946 90.4134 3.14946C90.1281 3.14946 89.9061 3.21439 89.6842 3.34427C89.4623 3.47414 89.2721 3.66896 89.1136 3.89624V6.26645Z" fill="#788392"/>
<path d="M95.6125 2.43515C95.9612 2.43515 96.2782 2.50008 96.5635 2.62995C96.8488 2.75983 97.1024 2.92217 97.2927 3.14946C97.4829 3.37674 97.6414 3.63649 97.7365 3.96117C97.8316 4.28586 97.895 4.61055 97.895 5.00018C97.895 5.3898 97.8316 5.74695 97.7365 6.03917C97.6414 6.36386 97.4829 6.6236 97.2927 6.85089C97.1024 7.07817 96.8488 7.24051 96.5635 7.37039C96.2782 7.50026 95.9612 7.53273 95.6125 7.53273C95.2637 7.53273 94.9467 7.46779 94.6614 7.37039C94.3761 7.24051 94.1225 7.07817 93.9323 6.85089C93.7421 6.6236 93.5836 6.36386 93.4885 6.03917C93.3934 5.71448 93.33 5.3898 93.33 5.00018C93.33 4.61055 93.3934 4.25339 93.4885 3.96117C93.5836 3.66895 93.7421 3.37674 93.9323 3.14946C94.1225 2.92217 94.3761 2.75983 94.6614 2.62995C94.9467 2.50008 95.2637 2.43515 95.6125 2.43515ZM95.6125 6.81843C96.088 6.81843 96.4367 6.65608 96.6903 6.33139C96.9122 6.00671 97.039 5.55214 97.039 4.96771C97.039 4.38327 96.9122 3.9287 96.6903 3.60402C96.4684 3.27933 96.088 3.11698 95.6125 3.11698C95.3589 3.11698 95.1686 3.14946 94.9784 3.24687C94.7882 3.34427 94.6614 3.44167 94.5346 3.60402C94.4078 3.76636 94.3127 3.96118 94.281 4.18846C94.2176 4.41574 94.1859 4.67549 94.1859 4.96771C94.1859 5.55214 94.3127 6.00671 94.5346 6.33139C94.7882 6.65608 95.1369 6.81843 95.6125 6.81843Z" fill="#788392"/>
<path d="M100.748 2.50009C101.033 2.50009 101.287 2.53257 101.509 2.5975C101.731 2.66244 101.889 2.72737 102.048 2.85725C102.175 2.95466 102.27 3.08453 102.333 3.21441C102.397 3.34428 102.428 3.50662 102.428 3.66897C102.428 3.76637 102.428 3.89625 102.397 3.99365C102.365 4.12353 102.333 4.22093 102.238 4.31834C102.175 4.41575 102.08 4.51315 101.953 4.61056C101.826 4.70796 101.667 4.7729 101.509 4.80537C101.889 4.87031 102.175 5.00019 102.365 5.195C102.555 5.38981 102.65 5.64956 102.65 5.97425C102.65 6.20153 102.619 6.42881 102.523 6.59115C102.428 6.75349 102.302 6.91584 102.143 7.04571C101.984 7.17558 101.794 7.24053 101.572 7.30547C101.35 7.3704 101.129 7.40287 100.875 7.40287H99.0362V2.46762H100.748V2.50009ZM99.7971 3.08453V4.64303H100.716C100.843 4.64303 100.97 4.61056 101.097 4.57809C101.224 4.54562 101.319 4.48068 101.414 4.41574C101.509 4.35081 101.572 4.2534 101.604 4.156C101.667 4.05859 101.667 3.92872 101.667 3.83131C101.667 3.7339 101.636 3.6365 101.604 3.57156C101.572 3.50663 101.509 3.40922 101.446 3.34428C101.382 3.27934 101.255 3.21441 101.16 3.18194C101.065 3.14947 100.875 3.11699 100.716 3.11699H99.7971V3.08453ZM100.843 6.81844C101.16 6.81844 101.414 6.75349 101.604 6.59115C101.794 6.42881 101.889 6.234 101.889 5.97425C101.889 5.84437 101.858 5.74697 101.826 5.64956C101.794 5.55215 101.731 5.45474 101.667 5.3898C101.572 5.32487 101.477 5.25993 101.35 5.22746C101.224 5.19499 101.065 5.16253 100.875 5.16253H99.8288V6.81844H100.843Z" fill="#788392"/>
<path d="M104.204 0C104.33 0.227281 104.426 0.487027 104.489 0.746776C104.521 1.00653 104.552 1.26627 104.489 1.49355C104.457 1.7533 104.362 1.98059 104.235 2.20787C104.109 2.43515 103.95 2.62996 103.76 2.82477L103.506 2.66243C103.443 2.62996 103.443 2.59749 103.443 2.53255C103.443 2.50009 103.475 2.43515 103.475 2.40268C103.57 2.30528 103.633 2.1754 103.696 2.01305C103.76 1.85071 103.792 1.72084 103.823 1.52602C103.855 1.36368 103.823 1.16887 103.792 1.00652C103.76 0.81171 103.696 0.649374 103.601 0.487031C103.57 0.422093 103.538 0.357154 103.57 0.292216C103.601 0.227279 103.633 0.194812 103.696 0.162344L104.204 0Z" fill="#788392"/>
<path d="M108.769 2.50009V7.43534H107.976V5.35734H107.596C107.501 5.35734 107.437 5.35734 107.374 5.3898C107.31 5.3898 107.279 5.42228 107.215 5.45475C107.152 5.48721 107.12 5.51968 107.088 5.55215C107.057 5.58462 107.025 5.64956 106.993 5.68203L105.947 7.14312C105.884 7.24053 105.82 7.33793 105.757 7.3704C105.694 7.40287 105.567 7.43534 105.408 7.43534H104.806L106.201 5.58462C106.328 5.38981 106.454 5.25994 106.645 5.195C106.391 5.16253 106.201 5.09759 106.011 5.03266C105.852 4.93525 105.694 4.83784 105.599 4.74043C105.503 4.61056 105.408 4.51316 105.377 4.35081C105.313 4.22094 105.313 4.05859 105.313 3.92871C105.313 3.76637 105.345 3.60403 105.408 3.40922C105.472 3.21441 105.567 3.08453 105.725 2.95465C105.884 2.82478 106.042 2.72737 106.264 2.62996C106.486 2.53256 106.771 2.50009 107.088 2.50009H108.769ZM107.944 4.80537V3.08453H107.12C106.93 3.08453 106.803 3.117 106.676 3.14947C106.55 3.18193 106.454 3.27934 106.391 3.34428C106.328 3.44169 106.264 3.50662 106.233 3.6365C106.201 3.7339 106.201 3.83131 106.201 3.92871C106.201 4.18846 106.296 4.41575 106.486 4.54563C106.676 4.70797 106.93 4.7729 107.279 4.7729H107.944V4.80537Z" fill="#788392"/>
<path d="M117.043 3.73389H112.288V5.03264H117.043C120.72 5.03264 123.7 8.08469 123.7 11.8511V36.852C123.7 40.6183 120.72 43.6704 117.043 43.6704H7.95712C4.27971 43.6704 1.29975 40.6183 1.29975 36.852V11.8511C1.29975 8.08469 4.27971 5.03264 7.95712 5.03264H12.7124V3.73389H7.95712C3.58227 3.73389 0.0316772 7.37038 0.0316772 11.8511V36.852C0.0316772 41.3327 3.58227 44.9691 7.95712 44.9691H117.043C121.418 44.9691 124.968 41.3327 124.968 36.852V11.8511C124.968 7.37038 121.418 3.73389 117.043 3.73389Z" fill="url(#paint7_linear)"/>
<defs>
<linearGradient id="paint0_linear" x1="12.1357" y1="24.4978" x2="110.948" y2="24.4978" gradientUnits="userSpaceOnUse">
<stop stop-color="#1487CF"/>
<stop offset="0.3599" stop-color="#1688CE"/>
<stop offset="0.4896" stop-color="#1D8ACA"/>
<stop offset="0.582" stop-color="#288EC2"/>
<stop offset="0.6568" stop-color="#3994B7"/>
<stop offset="0.7208" stop-color="#4F9BA9"/>
<stop offset="0.7776" stop-color="#6BA598"/>
<stop offset="0.8289" stop-color="#8BB084"/>
<stop offset="0.876" stop-color="#B1BD6C"/>
<stop offset="0.918" stop-color="#DACB52"/>
<stop offset="0.9502" stop-color="#FFD83A"/>
</linearGradient>
<linearGradient id="paint1_linear" x1="12.1358" y1="24.2714" x2="110.948" y2="24.2714" gradientUnits="userSpaceOnUse">
<stop stop-color="#1487CF"/>
<stop offset="0.3599" stop-color="#1688CE"/>
<stop offset="0.4896" stop-color="#1D8ACA"/>
<stop offset="0.582" stop-color="#288EC2"/>
<stop offset="0.6568" stop-color="#3994B7"/>
<stop offset="0.7208" stop-color="#4F9BA9"/>
<stop offset="0.7776" stop-color="#6BA598"/>
<stop offset="0.8289" stop-color="#8BB084"/>
<stop offset="0.876" stop-color="#B1BD6C"/>
<stop offset="0.918" stop-color="#DACB52"/>
<stop offset="0.9502" stop-color="#FFD83A"/>
</linearGradient>
<linearGradient id="paint2_linear" x1="12.1358" y1="24.2714" x2="110.948" y2="24.2714" gradientUnits="userSpaceOnUse">
<stop stop-color="#1487CF"/>
<stop offset="0.3599" stop-color="#1688CE"/>
<stop offset="0.4896" stop-color="#1D8ACA"/>
<stop offset="0.582" stop-color="#288EC2"/>
<stop offset="0.6568" stop-color="#3994B7"/>
<stop offset="0.7208" stop-color="#4F9BA9"/>
<stop offset="0.7776" stop-color="#6BA598"/>
<stop offset="0.8289" stop-color="#8BB084"/>
<stop offset="0.876" stop-color="#B1BD6C"/>
<stop offset="0.918" stop-color="#DACB52"/>
<stop offset="0.9502" stop-color="#FFD83A"/>
</linearGradient>
<linearGradient id="paint3_linear" x1="12.1359" y1="24.4223" x2="110.947" y2="24.4223" gradientUnits="userSpaceOnUse">
<stop stop-color="#1487CF"/>
<stop offset="0.3599" stop-color="#1688CE"/>
<stop offset="0.4896" stop-color="#1D8ACA"/>
<stop offset="0.582" stop-color="#288EC2"/>
<stop offset="0.6568" stop-color="#3994B7"/>
<stop offset="0.7208" stop-color="#4F9BA9"/>
<stop offset="0.7776" stop-color="#6BA598"/>
<stop offset="0.8289" stop-color="#8BB084"/>
<stop offset="0.876" stop-color="#B1BD6C"/>
<stop offset="0.918" stop-color="#DACB52"/>
<stop offset="0.9502" stop-color="#FFD83A"/>
</linearGradient>
<linearGradient id="paint4_linear" x1="12.1357" y1="24.4067" x2="110.948" y2="24.4067" gradientUnits="userSpaceOnUse">
<stop stop-color="#1487CF"/>
<stop offset="0.3599" stop-color="#1688CE"/>
<stop offset="0.4896" stop-color="#1D8ACA"/>
<stop offset="0.582" stop-color="#288EC2"/>
<stop offset="0.6568" stop-color="#3994B7"/>
<stop offset="0.7208" stop-color="#4F9BA9"/>
<stop offset="0.7776" stop-color="#6BA598"/>
<stop offset="0.8289" stop-color="#8BB084"/>
<stop offset="0.876" stop-color="#B1BD6C"/>
<stop offset="0.918" stop-color="#DACB52"/>
<stop offset="0.9502" stop-color="#FFD83A"/>
</linearGradient>
<linearGradient id="paint5_linear" x1="12.1357" y1="24.6038" x2="110.948" y2="24.6038" gradientUnits="userSpaceOnUse">
<stop stop-color="#1487CF"/>
<stop offset="0.3599" stop-color="#1688CE"/>
<stop offset="0.4896" stop-color="#1D8ACA"/>
<stop offset="0.582" stop-color="#288EC2"/>
<stop offset="0.6568" stop-color="#3994B7"/>
<stop offset="0.7208" stop-color="#4F9BA9"/>
<stop offset="0.7776" stop-color="#6BA598"/>
<stop offset="0.8289" stop-color="#8BB084"/>
<stop offset="0.876" stop-color="#B1BD6C"/>
<stop offset="0.918" stop-color="#DACB52"/>
<stop offset="0.9502" stop-color="#FFD83A"/>
</linearGradient>
<linearGradient id="paint6_linear" x1="12.1358" y1="24.3469" x2="110.948" y2="24.3469" gradientUnits="userSpaceOnUse">
<stop stop-color="#1487CF"/>
<stop offset="0.3599" stop-color="#1688CE"/>
<stop offset="0.4896" stop-color="#1D8ACA"/>
<stop offset="0.582" stop-color="#288EC2"/>
<stop offset="0.6568" stop-color="#3994B7"/>
<stop offset="0.7208" stop-color="#4F9BA9"/>
<stop offset="0.7776" stop-color="#6BA598"/>
<stop offset="0.8289" stop-color="#8BB084"/>
<stop offset="0.876" stop-color="#B1BD6C"/>
<stop offset="0.918" stop-color="#DACB52"/>
<stop offset="0.9502" stop-color="#FFD83A"/>
</linearGradient>
<linearGradient id="paint7_linear" x1="0.0422022" y1="24.3405" x2="124.955" y2="24.3405" gradientUnits="userSpaceOnUse">
<stop offset="0.0766283" stop-color="#FFD83A"/>
<stop offset="0.157" stop-color="#D4D149"/>
<stop offset="0.2635" stop-color="#A1C85A"/>
<stop offset="0.3565" stop-color="#7CC166"/>
<stop offset="0.4314" stop-color="#65BD6E"/>
<stop offset="0.4789" stop-color="#5DBC71"/>
<stop offset="0.546" stop-color="#4DB086"/>
<stop offset="0.6697" stop-color="#349EA5"/>
<stop offset="0.7893" stop-color="#2291BC"/>
<stop offset="0.9018" stop-color="#188ACA"/>
<stop offset="1" stop-color="#1487CF"/>
</linearGradient>
</defs>
</svg>
