<svg width="100" height="32" viewBox="0 0 100 32" fill="none" xmlns="http://www.w3.org/2000/svg">
<path d="M92.8 0H7.2C3.22355 0 0 3.22355 0 7.2V24.8C0 28.7765 3.22355 32 7.2 32H92.8C96.7765 32 100 28.7765 100 24.8V7.2C100 3.22355 96.7765 0 92.8 0Z" fill="url(#paint0_linear)"/>
<path d="M92.8001 0.800201H7.20005C3.66543 0.800201 0.800049 3.66558 0.800049 7.2002V24.8002C0.800049 28.3348 3.66543 31.2002 7.20005 31.2002H92.8001C96.3347 31.2002 99.2001 28.3348 99.2001 24.8002V7.2002C99.2001 3.66558 96.3347 0.800201 92.8001 0.800201Z" fill="white"/>
<path d="M11.04 21.9999H9.68003C9.59701 21.9943 9.51884 21.9588 9.46 21.9C9.40116 21.8411 9.36564 21.763 9.36003 21.6799V15.9199C9.36564 15.8369 9.40116 15.7588 9.46 15.6999C9.51884 15.6411 9.59701 15.6056 9.68003 15.5999H13.2C13.6293 15.6085 14.0465 15.458 14.3714 15.1774C14.6964 14.8967 14.906 14.5059 14.96 14.0799C14.9824 13.8463 14.9555 13.6105 14.8812 13.3878C14.8068 13.1651 14.6866 12.9605 14.5283 12.7872C14.37 12.6138 14.1772 12.4755 13.9622 12.3813C13.7472 12.287 13.5148 12.2389 13.28 12.2399H9.60003C9.51701 12.2343 9.43884 12.1988 9.38 12.14C9.32116 12.0811 9.28564 12.003 9.28003 11.9199V10.5599C9.28564 10.4769 9.32116 10.3988 9.38 10.3399C9.43884 10.2811 9.51701 10.2456 9.60003 10.2399H13.12C14.0617 10.2283 14.9744 10.5649 15.6831 11.185C16.3918 11.8051 16.8465 12.6651 16.96 13.5999C17.0164 14.1157 16.9631 14.6376 16.8036 15.1313C16.6441 15.6251 16.382 16.0795 16.0345 16.4648C15.687 16.85 15.2619 17.1575 14.7872 17.3669C14.3125 17.5763 13.7989 17.683 13.28 17.6799H11.68C11.597 17.6856 11.5188 17.7211 11.46 17.7799C11.4012 17.8388 11.3656 17.9169 11.36 17.9999V21.7599C11.44 21.8399 11.28 21.9999 11.04 21.9999Z" fill="#1487CF"/>
<path d="M25.2801 22C24.1092 22 22.9647 21.6528 21.9911 21.0023C21.0176 20.3518 20.2588 19.4272 19.8107 18.3455C19.3627 17.2637 19.2454 16.0734 19.4739 14.925C19.7023 13.7767 20.2661 12.7218 21.094 11.8939C21.922 11.066 22.9768 10.5022 24.1252 10.2737C25.2735 10.0453 26.4639 10.1625 27.5456 10.6106C28.6273 11.0587 29.5519 11.8175 30.2024 12.791C30.8529 13.7645 31.2001 14.9091 31.2001 16.08C31.2019 16.8579 31.05 17.6285 30.7531 18.3476C30.4563 19.0666 30.0203 19.72 29.4702 20.27C28.9201 20.8201 28.2668 21.2561 27.5477 21.553C26.8287 21.8499 26.058 22.0018 25.2801 22ZM25.2801 12.16C24.5048 12.16 23.7469 12.3899 23.1023 12.8206C22.4576 13.2514 21.9552 13.8636 21.6585 14.5799C21.3618 15.2961 21.2842 16.0843 21.4354 16.8447C21.5867 17.6051 21.96 18.3036 22.5083 18.8518C23.0565 19.4001 23.755 19.7734 24.5154 19.9247C25.2758 20.0759 26.0639 19.9983 26.7802 19.7016C27.4965 19.4049 28.1087 18.9025 28.5395 18.2578C28.9702 17.6132 29.2001 16.8553 29.2001 16.08C29.1984 15.0408 28.7849 14.0448 28.0501 13.31C27.3153 12.5752 26.3192 12.1617 25.2801 12.16Z" fill="#1487CF"/>
<path d="M40.8802 22.0002H34.4802C34.3971 21.9946 34.319 21.9591 34.2601 21.9003C34.2013 21.8414 34.1658 21.7633 34.1602 21.6802V10.5602C34.1658 10.4772 34.2013 10.399 34.2601 10.3402C34.319 10.2814 34.3971 10.2459 34.4802 10.2402H35.8402C35.9232 10.2459 36.0013 10.2814 36.0602 10.3402C36.119 10.399 36.1545 10.4772 36.1602 10.5602V19.6802C36.1658 19.7633 36.2013 19.8414 36.2601 19.9003C36.319 19.9591 36.3971 19.9946 36.4802 20.0002H40.8802C40.9632 20.0058 41.0413 20.0414 41.1002 20.1002C41.159 20.159 41.1945 20.2372 41.2002 20.3202V21.6802C41.2044 21.7233 41.199 21.7668 41.1844 21.8075C41.1698 21.8483 41.1464 21.8853 41.1158 21.9159C41.0852 21.9465 41.0482 21.9699 41.0074 21.9845C40.9667 21.9991 40.9232 22.0045 40.8802 22.0002Z" fill="#1487CF"/>
<path d="M46.48 22.0002H45.1201C45.037 21.9946 44.9589 21.9591 44.9 21.9003C44.8412 21.8414 44.8057 21.7633 44.8 21.6802V10.5602C44.8057 10.4772 44.8412 10.399 44.9 10.3402C44.9589 10.2814 45.037 10.2459 45.1201 10.2402H46.48C46.5631 10.2459 46.6412 10.2814 46.7001 10.3402C46.7589 10.399 46.7944 10.4772 46.8 10.5602V21.6802C46.7944 21.7633 46.7589 21.8414 46.7001 21.9003C46.6412 21.9591 46.5631 21.9946 46.48 22.0002Z" fill="#1487CF"/>
<path d="M57.92 12.64C57.84 12.8 57.6001 12.8 57.4401 12.72C56.4815 12.1383 55.3392 11.9384 54.2401 12.16C53.2801 12.4 52.2401 13.2 53.0401 14.16C53.5201 14.8 54.8 14.96 55.52 15.28C56.48 15.68 57.6 16.08 58.16 16.96C59.52 18.88 58.08 21.36 55.92 21.84C53.9685 22.1761 51.9625 21.7463 50.32 20.64C50.16 20.56 50.16 20.32 50.24 20.16L50.72 19.44C50.8082 19.3557 50.9197 19.3 51.04 19.28C52.24 19.52 57.7601 20.64 56.6401 18.32C56.2401 17.28 53.76 16.88 52.88 16.48C51.28 15.76 50.24 14.08 51.04 12.32C52.32 9.60003 56.24 9.92003 58.4 11.36C58.56 11.44 58.56 11.68 58.48 11.84L57.92 12.64Z" fill="#1487CF"/>
<path d="M77.1202 10.16H75.7602C75.6772 10.1656 75.5991 10.2011 75.5402 10.26C75.4814 10.3188 75.4459 10.397 75.4403 10.48V17.76C75.4433 18.1053 75.3679 18.4468 75.2196 18.7587C75.0714 19.0706 74.8543 19.3448 74.5846 19.5605C74.315 19.7762 73.9999 19.9279 73.663 20.004C73.3262 20.0801 72.9765 20.0788 72.6403 20C72.1183 19.8748 71.6534 19.5782 71.3198 19.1576C70.9863 18.737 70.8033 18.2168 70.8002 17.68V10.48C70.7946 10.397 70.7591 10.3188 70.7003 10.26C70.6414 10.2011 70.5633 10.1656 70.4802 10.16H69.1202C69.0372 10.1656 68.9591 10.2011 68.9002 10.26C68.8414 10.3188 68.8059 10.397 68.8002 10.48V17.6C68.7901 18.6638 69.1653 19.6953 69.8564 20.504C70.5475 21.3128 71.5079 21.8442 72.5602 22C73.1666 22.0827 73.7836 22.035 74.3701 21.86C74.9565 21.6851 75.4989 21.3869 75.9608 20.9856C76.4228 20.5842 76.7937 20.0888 77.0489 19.5325C77.304 18.9763 77.4374 18.372 77.4403 17.76V10.48C77.4445 10.4369 77.4391 10.3935 77.4245 10.3527C77.4099 10.312 77.3865 10.275 77.3559 10.2444C77.3253 10.2138 77.2883 10.1903 77.2475 10.1757C77.2068 10.1611 77.1633 10.1558 77.1202 10.16Z" fill="url(#paint1_linear)"/>
<path d="M89.5999 21.6001L86.3999 10.3201C86.3199 10.1601 86.2399 10.0801 86.0799 10.0801H82.7199C82.5599 10.0801 82.4799 10.1601 82.3999 10.3201L79.1199 22.0001H80.9599C81.1199 22.0001 81.1999 21.9201 81.2799 21.7601L82.2399 18.4001C82.3199 18.2401 82.3999 18.1601 82.5599 18.1601H86.3199C86.4799 18.1601 86.5599 18.2401 86.6399 18.4001L87.5999 21.7601C87.6799 21.9201 87.7599 22.0001 87.9199 22.0001H89.2799C89.5199 22.0001 89.6799 21.7601 89.5999 21.6001ZM85.5999 16.1601H83.3599C83.1199 16.1601 82.9599 15.9201 83.0399 15.7601L83.9999 12.4001C84.0799 12.2401 84.1599 12.1601 84.3199 12.1601H84.7199C84.8799 12.1601 85.0399 12.2401 85.0399 12.4001L85.9999 15.7601C85.9199 15.9201 85.7599 16.1601 85.5999 16.1601Z" fill="url(#paint2_linear)"/>
<defs>
<linearGradient id="paint0_linear" x1="100" y1="32" x2="0" y2="32" gradientUnits="userSpaceOnUse">
<stop stop-color="#1487CF"/>
<stop offset="0.293" stop-color="#1487CF"/>
<stop offset="1" stop-color="#FFD83A"/>
</linearGradient>
<linearGradient id="paint1_linear" x1="68.4371" y1="16.1584" x2="87.1289" y2="16.1584" gradientUnits="userSpaceOnUse">
<stop stop-color="#1487CF"/>
<stop offset="0.293" stop-color="#1487CF"/>
<stop offset="1" stop-color="#FFD83A"/>
</linearGradient>
<linearGradient id="paint2_linear" x1="68.43" y1="16.0401" x2="87.132" y2="16.0401" gradientUnits="userSpaceOnUse">
<stop stop-color="#1487CF"/>
<stop offset="0.293" stop-color="#1487CF"/>
<stop offset="1" stop-color="#FFD83A"/>
</linearGradient>
</defs>
</svg>
