<svg width="24" height="24" viewBox="0 0 24 24" fill="none" xmlns="http://www.w3.org/2000/svg">
<path fill-rule="evenodd" clip-rule="evenodd" d="M15.4088 10.7044C15.4088 13.3025 13.3025 15.4088 10.7044 15.4088C8.10622 15.4088 6 13.3025 6 10.7044C6 8.10622 8.10622 6 10.7044 6C13.3025 6 15.4088 8.10622 15.4088 10.7044ZM14.6875 16.0978C13.5738 16.9217 12.196 17.4088 10.7044 17.4088C7.00165 17.4088 4 14.4071 4 10.7044C4 7.00165 7.00165 4 10.7044 4C14.4071 4 17.4088 7.00165 17.4088 10.7044C17.4088 12.196 16.9217 13.5738 16.0978 14.6875C16.1164 14.7035 16.1345 14.7203 16.1522 14.7379L19.7077 18.2935C20.0982 18.684 20.0982 19.3172 19.7077 19.7077C19.3172 20.0982 18.684 20.0982 18.2935 19.7077L14.7379 16.1522C14.7203 16.1345 14.7035 16.1164 14.6875 16.0978Z" fill="#788392"/>
</svg>
